<svg width="20.000000" height="20.000000" viewBox="0 0 20 20" fill="none" xmlns="http://www.w3.org/2000/svg" xmlns:xlink="http://www.w3.org/1999/xlink">
	<desc>
			Created with Pixso.
	</desc>
	<defs/>
	<path id="Vector" d="M17 2L15 2L15 1C15 0.73 14.89 0.48 14.7 0.29C14.51 0.1 14.26 0 14 0C13.73 0 13.48 0.1 13.29 0.29C13.1 0.48 13 0.73 13 1L13 2L7 2L7 1C7 0.73 6.89 0.48 6.7 0.29C6.51 0.1 6.26 0 6 0C5.73 0 5.48 0.1 5.29 0.29C5.1 0.48 5 0.73 5 1L5 2L3 2C2.2 2 1.44 2.31 0.87 2.87C0.31 3.44 0 4.2 0 5L0 17C0 17.79 0.31 18.55 0.87 19.12C1.44 19.68 2.2 20 3 20L17 20C17.79 20 18.55 19.68 19.12 19.12C19.68 18.55 20 17.79 20 17L20 5C20 4.2 19.68 3.44 19.12 2.87C18.55 2.31 17.79 2 17 2ZM18 17C18 17.26 17.89 17.51 17.7 17.7C17.51 17.89 17.26 18 17 18L3 18C2.73 18 2.48 17.89 2.29 17.7C2.1 17.51 2 17.26 2 17L2 10L18 10L18 17ZM18 8L2 8L2 5C2 4.73 2.1 4.48 2.29 4.29C2.48 4.1 2.73 4 3 4L5 4L5 5C5 5.26 5.1 5.51 5.29 5.7C5.48 5.89 5.73 6 6 6C6.26 6 6.51 5.89 6.7 5.7C6.89 5.51 7 5.26 7 5L7 4L13 4L13 5C13 5.26 13.1 5.51 13.29 5.7C13.48 5.89 13.73 6 14 6C14.26 6 14.51 5.89 14.7 5.7C14.89 5.51 15 5.26 15 5L15 4L17 4C17.26 4 17.51 4.1 17.7 4.29C17.89 4.48 18 4.73 18 5L18 8Z" fill="#1A759F" fill-opacity="1.000000" fill-rule="nonzero"/>
</svg>
