<svg width="24.000000" height="24.000000" viewBox="0 0 24 24" fill="none" xmlns="http://www.w3.org/2000/svg" xmlns:xlink="http://www.w3.org/1999/xlink">
	<desc>
			Created with Pixso.
	</desc>
	<defs>
		<clipPath id="clip1_66">
			<rect id="users / 24 / Outline" rx="-0.500000" width="23.000000" height="23.000000" transform="translate(0.500000 0.500000)" fill="white" fill-opacity="0"/>
		</clipPath>
	</defs>
	<rect id="users / 24 / Outline" rx="-0.500000" width="23.000000" height="23.000000" transform="translate(0.500000 0.500000)" fill="#FFFFFF" fill-opacity="0"/>
	<g clip-path="url(#clip1_66)">
		<path id="Vector" d="M12.3 12.22C12.83 11.75 13.26 11.18 13.55 10.54C13.84 9.9 14 9.2 14 8.5C14 7.17 13.47 5.9 12.53 4.96C11.59 4.02 10.32 3.5 9 3.5C7.67 3.5 6.4 4.02 5.46 4.96C4.52 5.9 4 7.17 4 8.5C3.99 9.2 4.15 9.9 4.44 10.54C4.73 11.18 5.16 11.75 5.7 12.22C4.3 12.85 3.11 13.87 2.27 15.16C1.44 16.45 1 17.96 1 19.5C1 19.76 1.1 20.01 1.29 20.2C1.48 20.39 1.73 20.5 2 20.5C2.26 20.5 2.51 20.39 2.7 20.2C2.89 20.01 3 19.76 3 19.5C3 17.9 3.63 16.38 4.75 15.25C5.88 14.13 7.4 13.5 9 13.5C10.59 13.5 12.11 14.13 13.24 15.25C14.36 16.38 15 17.9 15 19.5C15 19.76 15.1 20.01 15.29 20.2C15.48 20.39 15.73 20.5 16 20.5C16.26 20.5 16.51 20.39 16.7 20.2C16.89 20.01 17 19.76 17 19.5C16.99 17.96 16.55 16.45 15.72 15.16C14.88 13.87 13.69 12.85 12.3 12.22ZM9 11.5C8.4 11.5 7.82 11.32 7.33 10.99C6.83 10.66 6.45 10.19 6.22 9.64C6 9.09 5.94 8.49 6.05 7.91C6.17 7.33 6.45 6.79 6.87 6.37C7.29 5.95 7.83 5.67 8.41 5.55C8.99 5.44 9.59 5.5 10.14 5.72C10.69 5.95 11.16 6.33 11.49 6.83C11.82 7.32 12 7.9 12 8.5C12 9.29 11.68 10.05 11.12 10.62C10.55 11.18 9.79 11.5 9 11.5ZM18.74 11.82C19.37 11.09 19.79 10.2 19.94 9.25C20.08 8.3 19.95 7.32 19.56 6.45C19.16 5.57 18.52 4.82 17.71 4.3C16.9 3.77 15.96 3.49 15 3.5C14.73 3.5 14.48 3.6 14.29 3.79C14.1 3.98 14 4.23 14 4.5C14 4.76 14.1 5.01 14.29 5.2C14.48 5.39 14.73 5.5 15 5.5C15.79 5.5 16.55 5.81 17.12 6.37C17.68 6.94 18 7.7 18 8.5C17.99 9.02 17.85 9.54 17.59 9.99C17.33 10.45 16.95 10.82 16.5 11.09C16.35 11.17 16.22 11.29 16.14 11.44C16.05 11.59 16 11.75 16 11.93C15.99 12.09 16.03 12.26 16.11 12.41C16.19 12.56 16.3 12.69 16.45 12.79L16.84 13.05L16.96 13.12C18.17 13.69 19.19 14.59 19.9 15.72C20.6 16.85 20.98 18.16 20.97 19.5C20.97 19.76 21.07 20.01 21.26 20.2C21.45 20.39 21.7 20.5 21.97 20.5C22.23 20.5 22.48 20.39 22.67 20.2C22.86 20.01 22.97 19.76 22.97 19.5C22.97 17.96 22.59 16.45 21.85 15.11C21.11 13.76 20.04 12.63 18.74 11.82Z" fill="#34A0A4" fill-opacity="1.000000" fill-rule="nonzero"/>
	</g>
</svg>
