<svg width="24.000000" height="24.000000" viewBox="0 0 24 24" fill="none" xmlns="http://www.w3.org/2000/svg" xmlns:xlink="http://www.w3.org/1999/xlink">
	<desc>
			Created with Pixso.
	</desc>
	<defs>
		<clipPath id="clip1_192">
			<rect id="Magnifier / 24 / Outline" rx="-0.500000" width="23.000000" height="23.000000" transform="translate(0.500000 0.500000)" fill="white" fill-opacity="0"/>
		</clipPath>
	</defs>
	<rect id="Magnifier / 24 / Outline" rx="-0.500000" width="23.000000" height="23.000000" transform="translate(0.500000 0.500000)" fill="#FFFFFF" fill-opacity="0"/>
	<g clip-path="url(#clip1_192)">
		<path id="Vector" d="M21.71 20.29L18 16.61C19.44 14.81 20.13 12.53 19.94 10.24C19.76 7.94 18.69 5.81 16.98 4.27C15.27 2.74 13.03 1.91 10.73 1.98C8.43 2.04 6.24 2.98 4.61 4.61C2.98 6.24 2.04 8.43 1.98 10.73C1.91 13.03 2.74 15.27 4.27 16.98C5.81 18.69 7.94 19.76 10.24 19.94C12.53 20.13 14.81 19.44 16.61 18L20.29 21.68C20.38 21.77 20.49 21.84 20.61 21.89C20.73 21.94 20.86 21.97 21 21.97C21.13 21.97 21.26 21.94 21.38 21.89C21.5 21.84 21.61 21.77 21.71 21.68C21.89 21.49 21.99 21.24 21.99 20.98C21.99 20.72 21.89 20.47 21.71 20.29ZM11 18C9.61 18 8.26 17.58 7.11 16.82C5.95 16.05 5.06 14.95 4.53 13.67C4 12.39 3.86 10.99 4.13 9.63C4.4 8.27 5.07 7.02 6.05 6.05C7.02 5.07 8.27 4.4 9.63 4.13C10.99 3.86 12.39 4 13.67 4.53C14.95 5.06 16.05 5.95 16.82 7.11C17.58 8.26 18 9.61 18 11C18 12.85 17.26 14.63 15.94 15.94C14.63 17.26 12.85 18 11 18Z" fill="#FFFFFF" fill-opacity="1.000000" fill-rule="nonzero"/>
	</g>
</svg>
